<svg aria-hidden="true" style="position: absolute; width: 0; height: 0; overflow: hidden;" version="1.1" xmlns="http://www.w3.org/2000/svg" xmlns:xlink="http://www.w3.org/1999/xlink">
<defs>
<symbol id="icon-facebook" viewBox="0 0 24 24">
<path d="M15.997 3.985h2.191v-3.816c-0.378-0.052-1.678-0.169-3.192-0.169-3.159 0-5.323 1.987-5.323 5.639v3.361h-3.486v4.266h3.486v10.734h4.274v-10.733h3.345l0.531-4.266h-3.877v-2.939c0.001-1.233 0.333-2.077 2.051-2.077z"></path>
</symbol>
<symbol id="icon-instagram" viewBox="0 0 24 24">
<path fill="#f4f4fd" style="fill: var(--color1, #f4f4fd)" d="M23.977 7.056c-0.057-1.275-0.263-2.152-0.558-2.912-0.318-0.833-0.79-1.543-1.387-2.127l-0.001-0.001c-0.585-0.594-1.293-1.064-2.084-1.369l-0.040-0.014c-0.764-0.295-1.637-0.503-2.912-0.558-1.284-0.060-1.692-0.075-4.949-0.075-3.261 0-3.669 0.014-4.949 0.070-1.274 0.057-2.151 0.263-2.91 0.558-0.834 0.318-1.544 0.79-2.128 1.387l-0.001 0.001c-0.594 0.585-1.064 1.293-1.369 2.084l-0.014 0.040c-0.295 0.764-0.502 1.636-0.558 2.91-0.060 1.286-0.075 1.694-0.075 4.952 0 3.259 0.014 3.667 0.070 4.947 0.057 1.275 0.263 2.151 0.559 2.911 0.32 0.833 0.791 1.543 1.386 2.128l0.001 0.001c0.6 0.61 1.327 1.083 2.124 1.383 0.764 0.295 1.636 0.501 2.912 0.558 1.28 0.056 1.687 0.070 4.946 0.070s3.666-0.014 4.946-0.070c1.275-0.057 2.152-0.263 2.912-0.558 1.617-0.638 2.874-1.894 3.497-3.47l0.014-0.042c0.296-0.764 0.502-1.636 0.558-2.911 0.056-1.28 0.070-1.688 0.070-4.947 0-3.258-0.004-3.666-0.060-4.946zM21.815 16.855c-0.051 1.172-0.248 1.805-0.412 2.227-0.414 1.050-1.229 1.865-2.252 2.269l-0.027 0.009c-0.422 0.165-1.060 0.361-2.227 0.413-1.266 0.056-1.645 0.070-4.848 0.070s-3.586-0.014-4.848-0.070c-1.172-0.052-1.805-0.248-2.227-0.413-0.541-0.202-1.001-0.507-1.377-0.894l-0.001-0.001c-0.388-0.378-0.693-0.838-0.887-1.352l-0.009-0.026c-0.164-0.422-0.36-1.060-0.412-2.227-0.056-1.266-0.070-1.646-0.070-4.848s0.014-3.587 0.070-4.848c0.052-1.172 0.248-1.805 0.412-2.227 0.193-0.52 0.498-0.994 0.9-1.379 0.378-0.387 0.839-0.692 1.354-0.887l0.026-0.008c0.421-0.164 1.059-0.36 2.226-0.413 1.266-0.056 1.646-0.070 4.848-0.070 3.207 0 3.586 0.014 4.848 0.070 1.172 0.052 1.805 0.249 2.227 0.413 0.52 0.192 0.994 0.497 1.378 0.895 0.399 0.39 0.703 0.858 0.896 1.379 0.164 0.422 0.36 1.060 0.412 2.227 0.056 1.266 0.070 1.645 0.070 4.848s-0.014 3.577-0.070 4.843z"></path>
<path fill="#f4f4fd" style="fill: var(--color1, #f4f4fd)" d="M12.044 5.837c-3.404 0.001-6.164 2.761-6.165 6.165v0c0.001 3.404 2.761 6.164 6.165 6.165h0c3.405-0.001 6.165-2.76 6.166-6.165v-0c-0.001-3.405-2.761-6.164-6.166-6.165h-0zM12.044 16.001c-2.209-0.001-3.999-1.791-3.999-4s1.791-4 4-4c0 0 0.001 0 0.001 0h-0c2.209 0.001 3.999 1.791 3.999 4s-1.791 4-4 4c-0 0-0.001 0-0.001 0h0zM19.893 5.593c0 0.011 0 0.025 0 0.038 0 0.795-0.645 1.44-1.44 1.44s-1.44-0.645-1.44-1.44c0-0.013 0-0.027 0.001-0.040l-0 0.002c0.021-0.779 0.658-1.402 1.44-1.402s1.418 0.623 1.439 1.4l0 0.002z"></path>
</symbol>
<symbol id="icon-linkedin" viewBox="0 0 24 24">
<path fill="#f4f4fd" style="fill: var(--color1, #f4f4fd)" d="M23.994 24v-0.001h0.006v-8.802c0-4.306-0.927-7.623-5.961-7.623-2.42 0-4.044 1.328-4.707 2.587h-0.070v-2.185h-4.773v16.023h4.97v-7.934c0-2.089 0.396-4.109 2.983-4.109 2.549 0 2.587 2.384 2.587 4.243v7.801h4.965zM0.396 7.977h4.976v16.023h-4.976v-16.023zM2.882 0c-1.591 0.001-2.881 1.291-2.882 2.882v0c0 1.591 1.291 2.909 2.882 2.909s2.882-1.318 2.882-2.909c-0.001-1.591-1.291-2.881-2.882-2.882h-0z"></path>
</symbol>
<symbol id="icon-twitter" viewBox="0 0 24 24">
<path fill="#f4f4fd" style="fill: var(--color1, #f4f4fd)" d="M24 4.559c-0.892 0.391-1.843 0.65-2.835 0.776 1.020-0.612 1.786-1.558 2.155-2.684l0.010-0.035c-0.898 0.542-1.943 0.955-3.057 1.18l-0.063 0.011c-0.9-0.96-2.176-1.558-3.592-1.558-2.717 0-4.919 2.202-4.919 4.919 0 0.002 0 0.003 0 0.005v-0c0 0.39 0.033 0.764 0.114 1.121-4.091-0.199-7.71-2.16-10.142-5.146-0.422 0.713-0.672 1.571-0.673 2.487v0c0 1.704 0.877 3.214 2.185 4.089-0.819-0.023-1.582-0.244-2.247-0.619l0.024 0.013v0.054c0.003 2.373 1.678 4.354 3.91 4.829l0.032 0.006c-0.4 0.109-0.837 0.162-1.29 0.162-0.023 0-0.050 0.001-0.078 0.001-0.302 0-0.597-0.031-0.882-0.090l0.028 0.005c0.638 1.948 2.447 3.38 4.598 3.427-1.661 1.309-3.783 2.099-6.091 2.099-0.003 0-0.007 0-0.010 0h0.001c-0.404 0-0.791-0.018-1.178-0.068 2.12 1.384 4.715 2.208 7.503 2.208 0.016 0 0.032-0 0.047-0h-0.002c9.054 0 14.004-7.5 14.004-14.001 0-0.217-0.008-0.427-0.018-0.636 0.974-0.703 1.793-1.549 2.444-2.519l0.022-0.035z"></path>
</symbol>
</defs>
</svg>
