<svg aria-hidden="true" style="position: absolute; width: 0; height: 0; overflow: hidden;" version="1.1" xmlns="http://www.w3.org/2000/svg" xmlns:xlink="http://www.w3.org/1999/xlink">
<defs>
<symbol id="icon-antenna-1-1" viewBox="0 0 24 24">
<path fill="#2e2f42" style="fill: var(--color1, #2e2f42)" d="M23.080 16.573l-6.332-6.379 0.703-3.461c0.181 0.070 0.374 0.108 0.569 0.109h0.005c0.006 0 0.012 0 0.019 0 0.894 0 1.619-0.725 1.619-1.619s-0.725-1.619-1.619-1.619c-0.894 0-1.619 0.725-1.619 1.619 0 0.195 0.034 0.381 0.097 0.554l-0.004-0.011-3.72 0.454-6.068-6.099c-0.072-0.073-0.172-0.119-0.282-0.12h-0c-0.105 0-0.205 0.042-0.28 0.116l-1.134 1.128c-0.072 0.072-0.117 0.172-0.117 0.283s0.045 0.211 0.117 0.283v0l0.611 0.619c-0.857 1.547-1.362 3.391-1.362 5.354 0 3.079 1.242 5.869 3.252 7.894l-0.001-0.001c0.032 0.030 0.069 0.055 0.109 0.073-0.024 0.123-0.038 0.265-0.039 0.409v4.641h-4.8c-1.104 0.001-1.999 0.896-2.001 2v0.8c0 0.221 0.179 0.4 0.4 0.4h18.4c0.221 0 0.4-0.179 0.4-0.4v-0.8c-0.002-1.104-0.896-1.999-2-2h-4.8v-2.057c0.752 0.158 1.518 0.238 2.286 0.24 1.935-0.002 3.754-0.497 5.338-1.367l-0.058 0.029 0.614 0.617c0.074 0.076 0.176 0.119 0.282 0.12 0.105-0.001 0.206-0.042 0.28-0.116l1.134-1.128c0.072-0.072 0.117-0.172 0.117-0.283s-0.045-0.21-0.117-0.283v0zM17.46 4.675c0.145-0.144 0.344-0.232 0.564-0.232 0.442 0 0.8 0.358 0.8 0.8s-0.358 0.8-0.8 0.8c-0 0-0 0-0 0h-0.002c-0.44-0.002-0.796-0.359-0.796-0.8 0-0.222 0.090-0.422 0.236-0.567l0-0h-0.002zM16.518 7.303l-0.449 2.209-0.882-0.886 1.331-1.323zM16.064 6.627l-1.44 1.431-1.114-1.12 2.554-0.311zM18.003 21.6c0.663 0 1.2 0.537 1.2 1.2v0 0.4h-17.6v-0.4c0-0.663 0.537-1.2 1.2-1.2h15.2zM12.403 20v0.8h-4v-0.8h4zM8.403 19.2v-3.040c0-0.97 0.897-1.76 2-1.76s2 0.79 2 1.76v3.040h-4zM13.203 17.928v-1.768c0-1.412-1.256-2.56-2.8-2.56-0.013-0-0.029-0-0.044-0-1.014 0-1.905 0.53-2.41 1.328l-0.007 0.012c-1.77-1.861-2.858-4.385-2.858-7.162 0-1.736 0.425-3.372 1.177-4.811l-0.027 0.057 13.951 14.031c-1.367 0.71-2.985 1.127-4.7 1.127-0.809 0-1.596-0.093-2.352-0.268l0.070 0.014zM21.67 17.415l-15.793-15.885 0.566-0.564 5.951 5.985c0.003 0 0.004 0.005 0.007 0.007l9.836 9.893-0.568 0.564z"></path>
<path fill="#4d5ae5" style="fill: var(--color2, #4d5ae5)" d="M10.407 15.2h-0.004c-0.001 0-0.001 0-0.002 0-0.663 0-1.2 0.537-1.2 1.2s0.536 1.199 1.198 1.2h0.004c0.001 0 0.001 0 0.002 0 0.663 0 1.2-0.537 1.2-1.2s-0.536-1.199-1.198-1.2h-0zM10.687 16.684c-0.072 0.072-0.172 0.116-0.282 0.116-0.221 0-0.4-0.179-0.4-0.4 0-0.001 0-0.001 0-0.002v0c0.001-0.219 0.179-0.396 0.398-0.398h0c0.22 0.001 0.398 0.18 0.398 0.4 0 0.111-0.045 0.211-0.118 0.283l-0 0h0.004z"></path>
</symbol>
<symbol id="icon-astronaut-1-1" viewBox="0 0 24 24">
<path fill="#4d5ae5" style="fill: var(--color2, #4d5ae5)" d="M23.98 3.393c-0.048-0.143-0.17-0.249-0.32-0.272l-0.002-0-1.433-0.208-0.641-1.298c-0.134-0.274-0.582-0.274-0.717 0l-0.641 1.298-1.432 0.209c-0.195 0.029-0.343 0.195-0.343 0.396 0 0.112 0.046 0.214 0.121 0.286l0 0 1.037 1.011-0.245 1.427c-0.026 0.15 0.036 0.301 0.159 0.391 0.125 0.090 0.287 0.102 0.422 0.030l1.282-0.674 1.282 0.674c0.054 0.029 0.117 0.045 0.185 0.045 0.221 0 0.401-0.179 0.401-0.401 0-0.023-0.002-0.046-0.006-0.069l0 0.002-0.244-1.427 1.037-1.011c0.075-0.073 0.121-0.174 0.121-0.287 0-0.044-0.007-0.087-0.020-0.126l0.001 0.003zM22.133 4.388c-0.094 0.091-0.137 0.224-0.115 0.354l0.143 0.835-0.75-0.394c-0.054-0.029-0.118-0.046-0.186-0.046s-0.132 0.017-0.189 0.047l0.002-0.001-0.75 0.394 0.143-0.835c0.004-0.020 0.006-0.044 0.006-0.067 0-0.112-0.046-0.214-0.121-0.287l-0-0-0.608-0.592 0.839-0.122c0.131-0.019 0.243-0.101 0.301-0.219l0.375-0.76 0.376 0.76c0.058 0.118 0.171 0.2 0.302 0.219l0.839 0.122-0.607 0.592zM19.6 15.391h-0.8v0.8h0.8v-0.8zM19.6 16.992h-0.8v0.8h0.8v-0.801z"></path>
<path fill="#4d5ae5" style="fill: var(--color2, #4d5ae5)" d="M20.4 16.192h-0.8v0.8h0.8v-0.8zM18.8 16.192h-0.8v0.8h0.8v-0.8zM16.8 19.792h-0.8v0.8h0.8v-0.8zM16.8 21.392h-0.8v0.8h0.8v-0.8zM17.6 20.592h-0.8v0.8h0.8v-0.801z"></path>
<path fill="#4d5ae5" style="fill: var(--color2, #4d5ae5)" d="M16 20.592h-0.8v0.8h0.8v-0.801zM12 18.192h-0.8v0.8h0.8v-0.801zM12 19.792h-0.8v0.8h0.8v-0.8zM12.8 18.992h-0.8v0.8h0.8v-0.8zM11.2 18.992h-0.8v0.8h0.8v-0.8zM4.4 4.591h-0.8v0.8h0.8v-0.8zM4.4 6.191h-0.8v0.8h0.8v-0.8zM5.2 5.391h-0.8v0.8h0.8v-0.8zM3.6 5.391h-0.8v0.8h0.8v-0.8z"></path>
<path fill="#2e2f42" style="fill: var(--color1, #2e2f42)" d="M18.536 10.62c-0.21-0.282-0.524-0.477-0.884-0.528l-0.007-0.001c-0.057-0.009-0.123-0.014-0.19-0.014-0.308 0-0.592 0.105-0.818 0.28l0.003-0.002-0.939 0.72-1.423 1.063-1.018-0.406c1.816-0.814 3.085-2.631 3.085-4.74 0-2.867-2.342-5.2-5.221-5.2s-5.221 2.332-5.221 5.2c0 1.039 0.311 2.005 0.84 2.819l-2.077-0.018c-0.006 0-0.011 0.003-0.018 0.004-0.042 0.002-0.082 0.010-0.119 0.024l0.003-0.001c-0.010 0.004-0.019 0.006-0.029 0.010-0.005 0.002-0.009 0.002-0.014 0.005l-2.426 1.197-1.42 0.683c-0.018 0.008-0.034 0.017-0.048 0.027l0.001-0.001c-0.361 0.243-0.596 0.65-0.596 1.112 0 0.222 0.054 0.432 0.151 0.617l-0.003-0.007c0.165 0.322 0.446 0.559 0.792 0.667 0.12 0.039 0.259 0.062 0.403 0.062 0.231 0 0.448-0.059 0.638-0.162l-0.007 0.003 1.041-0.553 1.698-0.877 1.018-0.006-4.082 4.061c0 0.001-0.001 0.001-0.001 0.001l-1.004 1c-0.227 0.224-0.367 0.536-0.367 0.88 0 0.001 0 0.003 0 0.004v-0c0 0.334 0.13 0.648 0.367 0.884 0.244 0.243 0.564 0.364 0.884 0.364s0.641-0.121 0.885-0.364l0.986-0.981 1.306-0.975 0.675 0.673-2.326 2.316c-0.227 0.224-0.368 0.536-0.368 0.88 0 0.001 0 0.002 0 0.004v-0c0 0.334 0.131 0.648 0.368 0.884 0.244 0.242 0.564 0.364 0.885 0.364s0.641-0.122 0.885-0.364l2.612-2.6c0-0.001 0-0.001 0.001-0.002l0.757-0.75-0.003-0.003c0.005-0.005 0.012-0.006 0.017-0.012l3.875-4.244 2.603 0.37c0.015 0.002 0.033 0.003 0.051 0.003 0.053 0 0.103-0.010 0.149-0.029l-0.003 0.001c0.013-0.005 0.025-0.011 0.038-0.018 0.014-0.007 0.029-0.011 0.043-0.020l2.41-1.6c0.009-0.006 0.014-0.015 0.022-0.022s0.021-0.010 0.030-0.019l0.954-0.894c0.26-0.244 0.423-0.59 0.423-0.974 0-0.3-0.099-0.577-0.267-0.8l0.002 0.003zM1.597 13.328c-0.13 0.070-0.278 0.084-0.419 0.039-0.221-0.070-0.379-0.273-0.379-0.513 0-0.177 0.086-0.334 0.218-0.431l0.001-0.001 0.985-0.474 0.237 0.693 0.1 0.291-0.744 0.396zM4.221 11.957l-1.161 0.6-0.191-0.56-0.138-0.402 1.52-0.75-0.030 1.113zM15.545 6.991c0 0.689-0.164 1.339-0.449 1.92l-3.136-1.424c-0.033-0.431-0.257-0.805-0.587-1.038l-0.004-0.003 1.098-3.645c1.783 0.567 3.078 2.23 3.078 4.19zM6.704 6.991c0-2.426 1.983-4.4 4.421-4.4 0.19 0 0.375 0.016 0.559 0.039l-1.074 3.565c-0.014 0-0.028-0.004-0.043-0.004-0 0-0 0-0.001 0-0.774 0-1.401 0.626-1.404 1.4v0c0.002 0.774 0.63 1.4 1.404 1.4 0 0 0.001 0 0.001 0h-0c0.521 0 0.971-0.287 1.213-0.708l2.897 1.316c-0.806 1.085-2.096 1.793-3.552 1.793-2.438 0-4.421-1.974-4.421-4.4zM11.171 7.591c0 0.331-0.271 0.6-0.604 0.6-0 0-0.001 0-0.002 0-0.332 0-0.601-0.268-0.603-0.6v-0c0-0.331 0.271-0.6 0.605-0.6s0.604 0.269 0.604 0.6zM1.848 18.86c-0.082 0.081-0.196 0.132-0.321 0.132s-0.238-0.050-0.32-0.131l0 0c-0.082-0.081-0.132-0.193-0.132-0.317s0.051-0.236 0.132-0.317l0-0 0.722-0.719 0.638 0.636-0.719 0.716zM4.259 21.66c-0.082 0.082-0.196 0.132-0.321 0.132s-0.238-0.050-0.32-0.131l0 0c-0.082-0.081-0.132-0.193-0.132-0.317s0.051-0.236 0.132-0.317l0-0 0.722-0.719 0.639 0.636-0.72 0.716zM6.87 19.058l-0.002 0.001-1.324 1.32-0.639-0.636 1.323-1.317s0.001 0 0.001-0.001c0.030-0.030 0.049-0.066 0.068-0.101 0.005-0.010 0.015-0.019 0.019-0.030 0.012-0.031 0.014-0.064 0.019-0.097 0.003-0.018 0.010-0.036 0.010-0.054 0-0.027-0.009-0.052-0.015-0.079-0.005-0.024-0.005-0.049-0.014-0.072-0.015-0.038-0.041-0.071-0.069-0.103-0.008-0.009-0.010-0.020-0.019-0.029h-0l-0.001-0.002-1.205-1.2c-0.013-0.013-0.029-0.018-0.043-0.029-0.019-0.016-0.040-0.030-0.063-0.042l-0.002-0.001c-0.020-0.010-0.043-0.018-0.068-0.024l-0.003-0.001c-0.022-0.007-0.049-0.012-0.076-0.015l-0.001-0c-0.005-0-0.010-0-0.015-0-0.020 0-0.039 0.001-0.058 0.004l0.002-0c-0.029 0.003-0.056 0.008-0.081 0.016l0.003-0.001c-0.027 0.010-0.050 0.021-0.072 0.035l0.002-0.001c-0.015 0.008-0.032 0.011-0.046 0.021l-1.33 0.993-0.675-0.673 1.799-1.79 3.27 3.217-0.695 0.689zM11.984 13.795c-0.011-0.001-0.022 0.003-0.034 0.002-0.006-0-0.013-0-0.019-0-0.024 0-0.047 0.002-0.069 0.006l0.002-0c-0.023 0.004-0.045 0.008-0.066 0.016-0.028 0.010-0.052 0.022-0.074 0.036l0.001-0.001c-0.022 0.014-0.043 0.028-0.062 0.046-0.010 0.008-0.021 0.012-0.030 0.022l-3.524 3.86-3.246-3.193 2.125-2.114c0.072-0.072 0.117-0.172 0.117-0.283 0-0.221-0.179-0.401-0.401-0.401-0 0-0.001 0-0.001 0h0l-1.664 0.010 0.021-1.206 2.328 0.020c0.948 0.973 2.27 1.576 3.734 1.576 0.001 0 0.002 0 0.003 0h-0c0.328 0 0.648-0.034 0.96-0.092 0.030 0.024 0.060 0.048 0.098 0.064l1.807 0.72 0.248 1.232-2.252-0.32zM15.015 13.929l-0.235-1.168 1.085-0.81 0.71 0.942-1.56 1.036zM17.831 11.806l-0.629 0.589-0.698-0.927 0.624-0.478c0.116-0.090 0.263-0.126 0.407-0.107 0.145 0.020 0.273 0.096 0.36 0.213 0.163 0.219 0.135 0.524-0.064 0.711z"></path>
<path fill="#2e2f42" style="fill: var(--color1, #2e2f42)" d="M10.201 13.908l-1.607-1.6c-0.072-0.072-0.172-0.117-0.282-0.117s-0.21 0.045-0.282 0.117l-1.607 1.6c-0.072 0.073-0.117 0.173-0.117 0.284s0.045 0.211 0.117 0.284l-0-0 1.607 1.6c0.072 0.072 0.172 0.117 0.282 0.117s0.21-0.045 0.282-0.117l1.607-1.6c0.073-0.072 0.118-0.173 0.118-0.284s-0.045-0.211-0.118-0.284l-0-0zM8.312 15.227l-1.040-1.036 1.040-1.035 1.041 1.035-1.041 1.036zM12.873 3.803l-0.193 0.777c0.053 0.013 1.303 0.339 1.303 1.612h0.8c0-1.513-1.249-2.224-1.91-2.389zM14.783 6.991h-0.8v0.8h0.8v-0.8z"></path>
</symbol>
<symbol id="icon-clock-1-1" viewBox="0 0 24 24">
<path fill="#2e2f42" style="fill: var(--color1, #2e2f42)" d="M23.472 11.476c-0.001-6.339-5.141-11.477-11.481-11.476s-11.477 5.141-11.476 11.481c0.001 5.091 3.317 9.407 7.906 10.909l0.081 0.023c0.045 0.014 0.093 0.022 0.14 0.021 0.091 0 0.179-0.024 0.257-0.070 0.101-0.060 0.177-0.155 0.213-0.267l2.899-9.188c0.79-0.003 1.43-0.644 1.43-1.435 0-0.792-0.642-1.435-1.435-1.435-0.227 0-0.442 0.053-0.633 0.147l0.008-0.004-3.829-3.83c-0.087-0.086-0.206-0.14-0.338-0.14-0.264 0-0.478 0.214-0.478 0.478 0 0.132 0.054 0.252 0.14 0.338v0l3.828 3.832c-0.091 0.181-0.144 0.394-0.144 0.619 0 0.451 0.212 0.853 0.542 1.11l0.003 0.002-2.762 8.755c-5.458-2.011-8.253-8.066-6.243-13.524s8.066-8.253 13.524-6.243c5.458 2.011 8.253 8.066 6.243 13.524-1.009 2.686-3.003 4.804-5.531 5.953l-0.066 0.027-0.299-1.406c-0.047-0.218-0.239-0.379-0.468-0.379-0.122 0-0.234 0.046-0.319 0.122l0-0-2.878 2.569c-0.099 0.088-0.161 0.216-0.161 0.358 0 0.213 0.139 0.393 0.331 0.455l0.003 0.001 3.674 1.173c0.044 0.015 0.094 0.023 0.147 0.023 0.264 0 0.478-0.214 0.478-0.478 0-0.035-0.004-0.070-0.011-0.103l0.001 0.003-0.293-1.379c4.146-1.781 6.996-5.829 6.996-10.543 0-0.009 0-0.017-0-0.026v0.001zM11.994 10.998c0.264 0 0.479 0.214 0.479 0.478s-0.214 0.479-0.479 0.479v0c-0.264 0-0.478-0.214-0.478-0.479s0.214-0.478 0.478-0.478v0zM13.569 22.146l1.638-1.461 0.452 2.13-2.090-0.669z"></path>
<path fill="#4d5ae5" style="fill: var(--color2, #4d5ae5)" d="M11.516 2.389v0.956c0 0.264 0.214 0.478 0.478 0.478s0.478-0.214 0.478-0.478v-0.956c-0.010-0.256-0.221-0.46-0.478-0.46s-0.468 0.204-0.478 0.459l-0 0.001zM2.907 10.998c-0.264 0-0.478 0.214-0.478 0.478s0.214 0.478 0.478 0.478h0.956c0.264 0 0.478-0.214 0.478-0.478s-0.214-0.478-0.478-0.478h-0.956zM21.081 11.954c0.264 0 0.478-0.214 0.478-0.478s-0.214-0.478-0.478-0.478h-0.956c-0.256 0.010-0.46 0.221-0.46 0.478s0.204 0.468 0.459 0.478l0.001 0h0.956z"></path>
</symbol>
<symbol id="icon-diagram-1-1" viewBox="0 0 24 24">
<path fill="#4d5ae5" style="fill: var(--color2, #4d5ae5)" d="M11.194 11.224h0.8v3.598h-0.8v-3.598zM14.393 12.823h0.799v1.999h-0.799v-1.999zM7.996 14.022h0.8v0.799h-0.8v-0.799zM5.597 13.622h0.8v1.199h-0.8v-1.199z"></path>
<path fill="#2e2f42" style="fill: var(--color1, #2e2f42)" d="M1.199 21.218h19.19c0 0 0 0 0 0 0.662 0 1.199-0.537 1.199-1.199v0-1.599c0-0.662-0.537-1.199-1.199-1.199-0 0-0 0-0 0h-0.4v-9.97l2.271-2.151c0.156 0.078 0.339 0.124 0.533 0.124 0.666 0 1.206-0.54 1.206-1.206s-0.54-1.206-1.206-1.206c-0.666 0-1.206 0.54-1.206 1.206 0 0.185 0.042 0.36 0.116 0.517l-0.003-0.007-1.711 1.622v-0.923c0-0.662-0.537-1.199-1.199-1.199v0h-15.991c-0 0-0 0-0 0-0.662 0-1.199 0.537-1.199 1.199 0 0 0 0 0 0v-0 11.993h-0.4c-0.662 0-1.199 0.537-1.199 1.199 0 0 0 0 0 0v-0 1.599c0 0.662 0.537 1.199 1.199 1.199v0zM22.788 3.627c0.221 0 0.4 0.179 0.4 0.4s-0.179 0.4-0.4 0.4v0c-0.221 0-0.4-0.179-0.4-0.4s0.179-0.4 0.4-0.4v0zM2.399 5.227c0-0.221 0.179-0.4 0.4-0.4h15.992c0.221 0 0.4 0.179 0.4 0.4v1.679l-0.799 0.76v-1.639c0-0.221-0.179-0.4-0.4-0.4h-14.393c-0.221 0-0.4 0.179-0.4 0.4v9.994c0 0.221 0.179 0.4 0.4 0.4h14.393c0.221 0 0.4-0.179 0.4-0.4v-7.255l0.799-0.758v9.212h-16.791v-11.993zM5.997 10.424c-0.001 0-0.002 0-0.003 0-0.662 0-1.199 0.537-1.199 1.199s0.537 1.199 1.199 1.199c0.324 0 0.618-0.129 0.834-0.337l-0 0 1.39 0.697c0.161 0.081 0.357 0.043 0.477-0.092l2.954-3.324 2.904 2.176c0.156 0.117 0.374 0.104 0.514-0.030l2.524-2.391v6.098h-13.592v-9.195h13.593v1.995l-2.829 2.679-2.929-2.196c-0.066-0.050-0.149-0.080-0.239-0.080-0.119 0-0.225 0.052-0.298 0.134l-0 0-2.995 3.369-1.12-0.56c0.008-0.048 0.014-0.096 0.015-0.145-0-0.662-0.537-1.199-1.199-1.199h-0zM6.397 11.623c0 0.221-0.179 0.4-0.4 0.4s-0.4-0.179-0.4-0.4v0c0-0.221 0.179-0.4 0.4-0.4s0.4 0.179 0.4 0.4v0zM8.795 18.020h3.998v0.4c0 0.221-0.179 0.4-0.4 0.4h-3.198c-0.221 0-0.4-0.179-0.4-0.4v0-0.4zM0.8 18.42c0-0.221 0.179-0.4 0.4-0.4h6.796v0.4c0 0 0 0 0 0 0 0.662 0.537 1.199 1.199 1.199h3.199c0.662 0 1.199-0.537 1.199-1.199 0-0 0-0 0-0v0-0.4h6.796c0.221 0 0.4 0.179 0.4 0.4v1.599c0 0.221-0.179 0.4-0.4 0.4h-19.189c-0.221 0-0.4-0.179-0.4-0.4v0-1.599z"></path>
</symbol>
</defs>
</svg>
